<svg width="30" height="33" viewBox="0 0 30 33" fill="none" xmlns="http://www.w3.org/2000/svg">
<path d="M11.8428 5.16926C12.2104 5.16921 12.5735 5.25383 12.9069 5.41721C13.2403 5.5806 13.5359 5.81881 13.7731 6.11523C14.0103 6.41165 14.1833 6.75912 14.2801 7.13341C14.3769 7.50769 14.3952 7.89977 14.3336 8.28227L16.8257 8.72223C16.9216 8.12144 16.9194 7.50778 16.8194 6.90775C17.2974 6.5918 17.8618 6.45377 18.4227 6.51565C18.9837 6.57752 19.5088 6.83573 19.9146 7.24915C20.3204 7.66258 20.5834 8.20743 20.6618 8.79694C20.7402 9.38644 20.6295 9.98668 20.3472 10.502H6.79036C6.59431 10.5018 6.401 10.4534 6.22573 10.3607C6.05046 10.268 5.89805 10.1335 5.78057 9.9678C5.66308 9.80214 5.58373 9.60989 5.54882 9.40626C5.51391 9.20264 5.52438 8.99323 5.57941 8.79462C5.63445 8.59601 5.73253 8.41364 5.86589 8.26196C5.99925 8.11028 6.16423 7.99345 6.34777 7.92072C6.53132 7.84798 6.72838 7.82135 6.92337 7.84291C7.11835 7.86447 7.3059 7.93365 7.47117 8.04496C7.64131 8.15998 7.83511 8.23025 8.03629 8.24986C8.23748 8.26946 8.44019 8.23785 8.6274 8.15766C8.81462 8.07747 8.98088 7.95104 9.11222 7.789C9.24357 7.62695 9.33617 7.43401 9.38225 7.22638C9.51266 6.64095 9.82666 6.11921 10.2733 5.7458C10.7199 5.37239 11.273 5.16922 11.8428 5.16926ZM13.7576 2.89882C12.6162 2.40459 11.3429 2.36849 10.178 2.79733C9.01305 3.22618 8.03717 4.0903 7.43454 5.22658C6.62364 5.07868 5.78916 5.21343 5.05724 5.61046C4.32532 6.00748 3.73574 6.64521 3.37763 7.42724C3.01951 8.20927 2.91232 9.09309 3.07226 9.94512C3.23221 10.7971 3.65058 11.5711 4.26416 12.1499V27.8336C4.26416 28.5408 4.53031 29.219 5.00406 29.719C5.47782 30.2191 6.12037 30.5 6.79036 30.5H19.4214C20.0914 30.5 20.7339 30.2191 21.2077 29.719C21.6814 29.219 21.9476 28.5408 21.9476 27.8336H24.4738C25.1438 27.8336 25.7863 27.5527 26.2601 27.0526C26.7338 26.5526 27 25.8744 27 25.1672V15.8348C27 15.1277 26.7338 14.4495 26.2601 13.9494C25.7863 13.4494 25.1438 13.1684 24.4738 13.1684H21.9476V12.6965C22.7328 11.7581 23.1802 10.5581 23.2114 9.30652C23.2426 8.05498 22.8556 6.83176 22.1182 5.8511C21.3809 4.87044 20.3401 4.19488 19.1783 3.94274C18.0164 3.6906 16.8076 3.87795 15.7634 4.47199C15.2298 3.77901 14.5402 3.23816 13.7576 2.89882ZM21.9476 25.1672V15.8348H24.4738V25.1672H21.9476ZM9.31657 15.8348H11.8428V25.1672H9.31657V15.8348ZM14.369 15.8348H16.8952V25.1672H14.369V15.8348Z" fill="#313131"/>
</svg>
