<svg width="36" height="37" viewBox="0 0 36 37" fill="none" xmlns="http://www.w3.org/2000/svg">
<path fill-rule="evenodd" clip-rule="evenodd" d="M1.37499 18.32C1.35999 18.5855 1.39749 18.905 1.47249 19.547L2.07399 24.689C2.30963 26.7026 3.27648 28.5596 4.79098 29.9073C6.30547 31.2551 8.26215 31.9998 10.2895 32H15.7105C17.3036 31.9999 18.8627 31.5398 20.2006 30.675C21.5385 29.8102 22.5982 28.5775 23.2525 27.125H26.5C27.9918 27.125 29.4226 26.5324 30.4775 25.4775C31.5324 24.4226 32.125 22.9918 32.125 21.5C32.125 20.0081 31.5324 18.5774 30.4775 17.5225C29.4226 16.4676 27.9918 15.875 26.5 15.875H23.0815C22.7928 15.7146 22.4796 15.6031 22.1545 15.545C21.8935 15.5 21.5695 15.5 20.9245 15.5H5.07549C4.43049 15.5 4.10799 15.5 3.84699 15.545C3.1836 15.6631 2.57928 16.001 2.13138 16.5044C1.68349 17.0078 1.41811 17.6474 1.37799 18.32M24.6085 18.125C24.616 18.1895 24.6235 18.2555 24.6265 18.32C24.6415 18.5855 24.6055 18.905 24.5305 19.547L23.929 24.689L23.905 24.875H26.5C27.3951 24.875 28.2535 24.5194 28.8865 23.8865C29.5194 23.2535 29.875 22.3951 29.875 21.5C29.875 20.6049 29.5194 19.7464 28.8865 19.1135C28.2535 18.4806 27.3951 18.125 26.5 18.125H24.6085ZM13.795 2.70499C14.0057 2.91592 14.124 3.20186 14.124 3.49999C14.124 3.79811 14.0057 4.08405 13.795 4.29499C13.6085 4.48222 13.5038 4.73572 13.5038 4.99999C13.5038 5.26425 13.6085 5.51775 13.795 5.70499C14.4036 6.31371 14.7455 7.13923 14.7455 7.99999C14.7455 8.86075 14.4036 9.68627 13.795 10.295C13.5817 10.4937 13.2997 10.6019 13.0082 10.5967C12.7168 10.5916 12.4387 10.4735 12.2326 10.2674C12.0264 10.0613 11.9084 9.78322 11.9032 9.49177C11.8981 9.20032 12.0063 8.91825 12.205 8.70499C12.595 8.31499 12.595 7.68499 12.205 7.29499C11.5964 6.68627 11.2545 5.86075 11.2545 4.99999C11.2545 4.13923 11.5964 3.31371 12.205 2.70499C12.4159 2.49431 12.7019 2.37598 13 2.37598C13.2981 2.37598 13.5841 2.49431 13.795 2.70499ZM7.04499 4.95499C7.25567 5.16592 7.374 5.45186 7.374 5.74999C7.374 6.04811 7.25567 6.33405 7.04499 6.54499L6.87099 6.71899C6.6943 6.89551 6.58729 7.12991 6.56965 7.37905C6.55201 7.62819 6.62493 7.87533 6.77499 8.07499C7.24962 8.70797 7.47998 9.49093 7.42377 10.2801C7.36756 11.0693 7.02855 11.8117 6.46899 12.371L6.29499 12.545C6.08173 12.7437 5.79966 12.8519 5.50821 12.8467C5.21676 12.8416 4.93868 12.7235 4.73256 12.5174C4.52644 12.3113 4.40837 12.0332 4.40323 11.7418C4.39809 11.4503 4.50627 11.1682 4.70499 10.955L4.87899 10.781C5.05569 10.6045 5.1627 10.3701 5.18034 10.1209C5.19797 9.87178 5.12506 9.62465 4.97499 9.42499C4.50037 8.792 4.27001 8.00904 4.32622 7.21988C4.38243 6.43071 4.72144 5.68831 5.28099 5.12899L5.45499 4.95499C5.66593 4.74431 5.95187 4.62598 6.24999 4.62598C6.54812 4.62598 6.83406 4.74431 7.04499 4.95499ZM21.295 4.95499C21.5057 5.16592 21.624 5.45186 21.624 5.74999C21.624 6.04811 21.5057 6.33405 21.295 6.54499L21.121 6.71899C20.9443 6.89551 20.8373 7.12991 20.8197 7.37905C20.802 7.62819 20.8749 7.87533 21.025 8.07499C21.4996 8.70797 21.73 9.49093 21.6738 10.2801C21.6176 11.0693 21.2785 11.8117 20.719 12.371L20.545 12.545C20.442 12.6555 20.3178 12.7442 20.1798 12.8057C20.0418 12.8671 19.8928 12.9002 19.7418 12.9029C19.5907 12.9055 19.4407 12.8778 19.3006 12.8212C19.1605 12.7646 19.0333 12.6804 18.9264 12.5735C18.8196 12.4667 18.7354 12.3395 18.6788 12.1994C18.6222 12.0593 18.5944 11.9093 18.5971 11.7582C18.5998 11.6071 18.6328 11.4582 18.6943 11.3202C18.7558 11.1822 18.8445 11.058 18.955 10.955L19.129 10.781C19.3057 10.6045 19.4127 10.3701 19.4303 10.1209C19.448 9.87178 19.3751 9.62465 19.225 9.42499C18.7504 8.792 18.52 8.00904 18.5762 7.21988C18.6324 6.43071 18.9714 5.68831 19.531 5.12899L19.705 4.95499C19.9159 4.74431 20.2019 4.62598 20.5 4.62598C20.7981 4.62598 21.0841 4.74431 21.295 4.95499Z" fill="#313131"/>
</svg>
